<?xml version="1.0" encoding="UTF-8"?>
<!DOCTYPE svg PUBLIC "-//W3C//DTD SVG 1.1//EN" "http://www.w3.org/Graphics/SVG/1.1/DTD/svg11.dtd">
<svg xmlns="http://www.w3.org/2000/svg" version="1.1" width="225px" height="225px" style="shape-rendering:geometricPrecision; text-rendering:geometricPrecision; image-rendering:optimizeQuality; fill-rule:evenodd; clip-rule:evenodd" xmlns:xlink="http://www.w3.org/1999/xlink">
<g><path style="opacity:1" fill="#fcfcfc" d="M -0.5,-0.5 C 9.16667,-0.5 18.8333,-0.5 28.5,-0.5C 24.5724,1.59151 21.4057,4.59151 19,8.5C 18.3333,26.8333 18.3333,45.1667 19,63.5C 20.4056,68.5732 23.5723,72.0732 28.5,74C 56.1647,74.5 83.8313,74.6666 111.5,74.5C 111.5,53.1667 111.5,31.8333 111.5,10.5C 112.497,31.6601 112.831,52.9935 112.5,74.5C 112.5,99.5 112.5,124.5 112.5,149.5C 112.831,171.007 112.497,192.34 111.5,213.5C 111.5,192.167 111.5,170.833 111.5,149.5C 83.8313,149.333 56.1647,149.5 28.5,150C 24.3882,151.779 21.2215,154.612 19,158.5C 18.3333,176.833 18.3333,195.167 19,213.5C 20.5992,218.594 23.7658,222.261 28.5,224.5C 18.8333,224.5 9.16667,224.5 -0.5,224.5C -0.5,149.5 -0.5,74.5 -0.5,-0.5 Z"/></g>
<g><path style="opacity:1" fill="#000000" d="M 28.5,-0.5 C 52.5,-0.5 76.5,-0.5 100.5,-0.5C 106.467,0.799834 110.133,4.4665 111.5,10.5C 111.5,31.8333 111.5,53.1667 111.5,74.5C 83.8313,74.6666 56.1647,74.5 28.5,74C 23.5723,72.0732 20.4056,68.5732 19,63.5C 18.3333,45.1667 18.3333,26.8333 19,8.5C 21.4057,4.59151 24.5724,1.59151 28.5,-0.5 Z"/></g>
<g><path style="opacity:1" fill="#fefefe" d="M 100.5,-0.5 C 141.833,-0.5 183.167,-0.5 224.5,-0.5C 224.5,74.5 224.5,149.5 224.5,224.5C 183.167,224.5 141.833,224.5 100.5,224.5C 102.741,223.379 105.075,222.213 107.5,221C 109.496,218.838 110.83,216.338 111.5,213.5C 112.497,192.34 112.831,171.007 112.5,149.5C 140.897,149.975 169.23,149.475 197.5,148C 201.49,146.01 203.99,142.843 205,138.5C 205.667,120.167 205.667,101.833 205,83.5C 203.167,80.3333 200.667,77.8333 197.5,76C 169.23,74.5249 140.897,74.0249 112.5,74.5C 112.831,52.9935 112.497,31.6601 111.5,10.5C 110.133,4.4665 106.467,0.799834 100.5,-0.5 Z"/></g>
<g><path style="opacity:1" fill="#000000" d="M 112.5,74.5 C 140.897,74.0249 169.23,74.5249 197.5,76C 200.667,77.8333 203.167,80.3333 205,83.5C 205.667,101.833 205.667,120.167 205,138.5C 203.99,142.843 201.49,146.01 197.5,148C 169.23,149.475 140.897,149.975 112.5,149.5C 112.5,124.5 112.5,99.5 112.5,74.5 Z"/></g>
<g><path style="opacity:1" fill="#000000" d="M 111.5,213.5 C 110.83,216.338 109.496,218.838 107.5,221C 105.075,222.213 102.741,223.379 100.5,224.5C 76.5,224.5 52.5,224.5 28.5,224.5C 23.7658,222.261 20.5992,218.594 19,213.5C 18.3333,195.167 18.3333,176.833 19,158.5C 21.2215,154.612 24.3882,151.779 28.5,150C 56.1647,149.5 83.8313,149.333 111.5,149.5C 111.5,170.833 111.5,192.167 111.5,213.5 Z"/></g>
</svg>
